# xmcd
#
# Track frame offsets: 
#        150
#        10098
#        20955
#        33395
#        44738
#        55572
#        63843
#        76511
#        88661
#        105137
#        122820
#        134320
#        147536
#        156983
#        169768
#        182271
#        191632
#        207450
#        220666
#        230348
#        243760
#        255009
#        266344
#        279811
#        288976
#        297459
#        306389
#
# Disc length: 4190 seconds
#
# Revision: 2
# Processed by: cddbd v1.5.2PL0 Copyright (c) Steve Scherf et al.
# Submitted via: ExactAudioCopy v1.3
#
DISCID=73105c1b
DTITLE=Flatt and Scruggs - Flatt and Scruggs 1964-1969,Plus Bear Family Re
DTITLE=cords [CD4]
DYEAR=1995
DGENRE=Bluegrass
TTITLE0=If I Were A Carpenter
TTITLE1=Universal Soldier
TTITLE2=Long Road To Houston
TTITLE3=Catch The Wind
TTITLE4=Rainy Day Women
TTITLE5=12 And 35
TTITLE6=Nashville Skyline Rag
TTITLE7=I Walk the Line
TTITLE8=Ruby Don't Take Your Love To Town
TTITLE9=A Boy Named Sue
TTITLE10=Maggie's Farm
TTITLE11=Wanted Man
TTITLE12=One More Night
TTITLE13=One Too Many Mornings
TTITLE14=Girl From The North Country
TTITLE15=Honey, Just Allow Me One More Chance
TTITLE16=Tonight Will Be Fine
TTITLE17=The Story Of Bonnie And Clyde
TTITLE18=Another Ride With Clyde
TTITLE19=A Picture Of Bonnie
TTITLE20=The Barrow Gang Will Get You Little Man
TTITLE21=Bang You're Alive
TTITLE22=See Bonnie Die, See Clyde Die
TTITLE23=Reunion
TTITLE24=Get-Away
TTITLE25=The Chase
TTITLE26=Highway's End
EXTD=
EXTT0=
EXTT1=
EXTT2=
EXTT3=
EXTT4=
EXTT5=
EXTT6=
EXTT7=
EXTT8=
EXTT9=
EXTT10=
EXTT11=
EXTT12=
EXTT13=
EXTT14=
EXTT15=
EXTT16=
EXTT17=
EXTT18=
EXTT19=
EXTT20=
EXTT21=
EXTT22=
EXTT23=
EXTT24=
EXTT25=
EXTT26=
PLAYORDER=
